<svg width="225" height="227" viewBox="0 0 225 227" fill="none" xmlns="http://www.w3.org/2000/svg">
<path d="M183.65 2.26953H39.85C18.9681 2.26953 2.03998 19.1977 2.03998 40.0795V186.42C2.03998 207.301 18.9681 224.23 39.85 224.23H183.65C204.532 224.23 221.46 207.301 221.46 186.42V40.0795C221.46 19.1977 204.532 2.26953 183.65 2.26953Z" fill="white"/>
<path d="M0.58997 113.4C0.58997 88.3 0.58997 63.2 0.58997 38.1C0.4559 29.4111 3.36144 20.9483 8.80448 14.1742C14.2475 7.40003 21.886 2.74021 30.4 0.999987C33.0294 0.442105 35.7121 0.173836 38.4 0.199984C87.82 0.199984 137.24 0.199984 186.66 0.199984C208.01 0.199984 224.44 16.68 224.45 38.05C224.49 88.3367 224.49 138.623 224.45 188.91C224.514 193.876 223.585 198.804 221.717 203.406C219.848 208.007 217.079 212.189 213.571 215.704C210.063 219.219 205.887 221.998 201.29 223.876C196.693 225.754 191.766 226.694 186.8 226.64C137.3 226.687 87.7966 226.687 38.29 226.64C33.3287 226.698 28.4059 225.764 23.8105 223.893C19.215 222.022 15.0394 219.253 11.5287 215.747C8.01799 212.241 5.24288 208.069 3.36619 203.476C1.4895 198.883 0.549045 193.961 0.59998 189C0.54998 163.78 0.58997 138.59 0.58997 113.4ZM5.78998 113.53C5.78998 138.37 5.78998 163.21 5.78998 188.05C5.78998 207.61 19.71 221.49 39.31 221.5H185.73C205.33 221.5 219.24 207.6 219.24 188.04C219.24 138.36 219.24 88.6933 219.24 39.04C219.24 19.31 205.37 5.46999 185.59 5.46999C136.87 5.46999 88.15 5.46999 39.43 5.46999C19.66 5.46999 5.78998 19.32 5.78998 39.06C5.78332 63.8667 5.78332 88.69 5.78998 113.53V113.53Z" fill="#3D3D3D"/>
<path d="M155.87 95.8496C155.87 103.85 156.03 109.69 155.87 115.48C155.55 122.188 157.627 128.792 161.73 134.11C162.51 135.11 163.25 136.21 164 137.27C164.274 137.581 164.481 137.946 164.607 138.341C164.733 138.736 164.776 139.153 164.733 139.565C164.689 139.978 164.561 140.377 164.356 140.738C164.151 141.098 163.873 141.412 163.54 141.66C158.373 146.133 153.173 150.57 147.94 154.97C145.82 156.74 143.62 156.44 141.58 154.75C138.411 152.171 135.641 149.138 133.36 145.75C131.09 142.32 130.98 142.24 128.07 145.08C117.27 155.58 104.33 158.63 89.82 156.08C77.65 153.93 70.39 146.74 67.39 134.65C63.2 117.74 70.91 100.51 86.39 93.4996C94.19 89.9596 102.53 88.4996 110.94 87.4996C115.49 86.9296 120.06 86.4996 124.62 86.0296C125.73 85.9096 126.82 85.6896 126.8 84.3396C126.75 80.1096 127.1 75.8096 125.66 71.7396C123.8 66.5196 118.98 63.6196 112.72 63.7396C104.26 63.8796 99.13 67.6096 96.42 75.5596C95.25 78.9996 94.74 79.5096 91.21 79.1896C85.1 78.6396 78.97 78.2696 72.92 77.1896C70.22 76.6896 69.39 75.4696 69.92 72.7696C72.1 61.5396 77.97 53.1996 88.58 48.2696C104.64 40.8196 120.78 40.1296 137.32 46.6096C148.84 51.1196 154.46 59.6096 155.5 71.6696C156.17 80.4196 155.73 89.2596 155.87 95.8496ZM126.82 109.27C126.82 107.54 126.75 105.8 126.82 104.08C126.89 102.36 126.12 101.9 124.62 102.08C119.9 102.56 115.16 102.78 110.55 104.08C100.42 107 95.4 114.52 96.72 125C97.92 134.57 106.67 139.36 115.26 135C120.05 132.6 122.99 128.52 124.78 123.55C126.314 118.951 127.005 114.114 126.82 109.27V109.27Z" fill="#3D3D3D"/>
<path d="M117.5 193.47C79.91 193.33 50.02 183.42 24.24 161.92C23.1813 161.023 22.1794 160.061 21.24 159.04C20.9776 158.802 20.8159 158.472 20.7881 158.119C20.7602 157.766 20.8682 157.416 21.09 157.14C21.3016 156.859 21.6094 156.666 21.9543 156.598C22.2993 156.529 22.6573 156.591 22.96 156.77C23.91 157.19 24.83 157.67 25.74 158.17C44.1899 168.294 64.2753 175.097 85.08 178.27C117.37 183.21 148.84 180.09 179.36 168.2C180.796 167.605 182.265 167.094 183.76 166.67C185.22 166.28 186.76 166.21 187.61 167.85C188.46 169.49 187.34 170.61 186.11 171.52C179.787 176.067 172.937 179.835 165.71 182.74C149 189.78 131.42 193.15 117.5 193.47Z" fill="#F5A622"/>
<path d="M185 160.049L172.6 161.139C171.67 161.219 170.6 161.549 170.12 160.379C169.64 159.209 170.67 158.659 171.48 158.199C180.81 152.919 190.72 151.879 201.06 154.299C203.31 154.829 204.3 156.389 204.18 158.719C203.66 168.799 200.28 177.619 192.95 184.719C192.19 185.449 191.42 186.719 190.13 185.809C188.84 184.899 189.81 183.939 190.13 183.019C191.82 178.759 193.36 174.449 194.65 170.019C194.82 169.439 195.02 168.869 195.15 168.279C196.45 162.619 194.89 160.509 189.15 160.179C187.77 160.109 186.38 160.179 185 160.179V160.049Z" fill="#F5A622"/>
</svg>
