<svg width="225" height="227" viewBox="0 0 225 227" fill="none" xmlns="http://www.w3.org/2000/svg">
<path d="M184.27 2.41992H40.47C19.5881 2.41992 2.66003 19.348 2.66003 40.2299V186.57C2.66003 207.452 19.5881 224.38 40.47 224.38H184.27C205.152 224.38 222.08 207.452 222.08 186.57V40.2299C222.08 19.348 205.152 2.41992 184.27 2.41992Z" fill="white"/>
<path d="M224.26 113.39C224.26 138.237 224.26 163.087 224.26 187.94C224.26 210.48 208.05 226.64 185.45 226.65H39C16.6 226.65 0.359985 210.43 0.359985 188.04C0.359985 138.26 0.359985 88.477 0.359985 38.6904C0.359985 16.3204 16.61 0.120352 39.04 0.110352C87.8733 0.110352 136.703 0.110352 185.53 0.110352C208.11 0.110352 224.3 16.2904 224.3 38.8604C224.287 63.707 224.273 88.5504 224.26 113.39ZM5.51001 113.39C5.51001 138.237 5.51001 163.087 5.51001 187.94C5.51001 207.51 19.44 221.41 39.04 221.41H185.53C205.15 221.41 219.06 207.52 219.07 187.95V38.9004C219.07 19.1404 205.2 5.30035 185.41 5.30035H39.18C19.4 5.30035 5.52001 19.1504 5.51001 38.8904V113.39Z" fill="#3D3D3D"/>
<path d="M140.38 112.791C138.22 112.791 136.15 112.791 134.08 112.791C133.904 112.744 133.741 112.656 133.606 112.535C133.47 112.413 133.365 112.261 133.3 112.091C131.12 104.321 128.98 96.5506 126.83 88.7706C126.794 88.6579 126.751 88.5476 126.7 88.4406V112.761H119.11V65.1406H124.66C126.8 65.1406 126.81 65.1406 127.34 67.1406L132.73 87.6506C132.763 87.8015 132.852 87.934 132.98 88.0206V65.2006H140.38V112.791Z" fill="#3D3D3D"/>
<path d="M85.79 139.311V116.191H93.18V163.781H88.56C86.3 163.781 86.28 163.781 85.65 161.601C83.8034 155.107 81.96 148.607 80.12 142.101C79.88 141.251 79.74 140.371 79.5 139.201V163.701H71.92V116.131H74.78C76.09 116.131 77.41 116.131 78.72 116.131C79.4 116.131 79.66 116.351 79.83 117.011C81.71 124.251 83.6067 131.488 85.52 138.721C85.58 138.931 85.63 139.151 85.69 139.361L85.79 139.311Z" fill="#3D3D3D"/>
<path d="M97.64 112.751H89.22V65.2006C89.58 65.2006 89.94 65.1406 90.3 65.1406H101.3C107.4 65.1406 110.59 67.8006 111.59 73.8006C112.012 76.2569 111.968 78.7706 111.46 81.2106C110.73 84.6706 109.13 87.4206 105.4 88.2806C105.4 88.4006 105.4 88.5006 105.45 88.5106C108.75 89.9706 109.99 92.8306 110.45 96.1106C110.76 98.4606 110.78 100.851 110.89 103.231C111.05 106.361 111.17 109.491 111.31 112.701H102.88C102.72 110.991 102.48 109.251 102.42 107.501C102.3 104.231 102.36 100.951 102.21 97.6706C102.206 96.8187 102.016 95.9779 101.656 95.2062C101.295 94.4345 100.771 93.7502 100.12 93.2006C99.3494 92.7058 98.5362 92.2807 97.69 91.9306L97.64 112.751ZM97.64 77.9906V82.7406C97.64 85.0206 97.64 85.0206 99.91 85.0206C101.96 85.0206 102.86 84.4306 103 82.3706C103.199 79.7057 103.159 77.0283 102.88 74.3706C102.57 71.5906 101.34 70.8506 98.45 70.9506C97.81 70.9506 97.62 71.1906 97.63 71.8006C97.64 73.8506 97.62 75.9206 97.62 78.0006L97.64 77.9906Z" fill="#3D3D3D"/>
<path d="M144.63 138.351C149.57 139.951 150.57 143.941 150.94 148.151C151.117 150.456 151.002 152.774 150.6 155.051C149.73 160.251 146.81 163.161 141.6 163.591C137.35 163.941 133.05 163.661 128.69 163.661V116.131H131C134.52 116.181 138 116.061 141.55 116.321C145.55 116.611 148.04 118.931 149.05 122.811C149.812 125.868 149.968 129.044 149.51 132.161C149.08 135.001 147.92 137.461 144.63 138.351ZM136.84 141.421V158.161C140.37 158.791 141.59 157.991 141.98 154.611C142.19 152.799 142.27 150.974 142.22 149.151C142.162 147.365 141.988 145.584 141.7 143.821C141.65 143.244 141.411 142.699 141.021 142.27C140.631 141.842 140.11 141.554 139.54 141.451C138.642 141.371 137.739 141.361 136.84 141.421V141.421ZM136.84 135.421H138.27C140.4 135.421 141.27 134.881 141.4 132.741C141.577 129.925 141.523 127.098 141.24 124.291C140.99 121.981 139.24 121.151 136.84 121.841V135.421Z" fill="#3D3D3D"/>
<path d="M35.61 65.2908C39.83 65.2908 43.98 65.1008 48.1 65.3508C52.01 65.5808 54.46 67.9608 55.45 71.7308C56.2866 74.9164 56.4332 78.2439 55.88 81.4908C55.42 84.2108 54.27 86.4908 51.05 87.3408C55.39 88.7008 56.62 92.0008 57.24 95.7208C57.6852 98.4186 57.6547 101.173 57.15 103.861C56.15 109.321 53.08 112.291 47.49 112.671C43.58 112.941 39.63 112.721 35.61 112.721V65.2908ZM43.33 90.3908V107.271H44.52C47.36 107.271 48.23 106.651 48.44 103.811C48.62 100.884 48.6501 97.9504 48.53 95.0208C48.4906 93.8879 48.2003 92.7779 47.68 91.7708C47.2202 91.1159 46.5437 90.6448 45.77 90.4408C44.9628 90.3124 44.1418 90.2956 43.33 90.3908ZM43.33 84.4408H44.97C46.8 84.4408 47.72 83.8708 47.82 82.0508C48.0002 79.1386 47.9601 76.2169 47.7 73.3108C47.46 70.9608 45.7 70.1408 43.33 70.8608V84.4408Z" fill="#3D3D3D"/>
<path d="M122.19 139.83C122.07 144.98 122.01 150.13 120.97 155.19C120.6 156.943 120.04 158.649 119.3 160.28C118.784 161.5 117.937 162.551 116.856 163.316C115.775 164.081 114.502 164.529 113.18 164.61C111.673 164.75 110.157 164.75 108.65 164.61C107.262 164.502 105.933 164.003 104.816 163.171C103.7 162.34 102.841 161.209 102.34 159.91C101.016 156.714 100.274 153.307 100.15 149.85C99.5314 142.527 99.5983 135.161 100.35 127.85C100.62 125.559 101.109 123.298 101.81 121.1C102.242 119.441 103.226 117.977 104.6 116.951C105.974 115.924 107.656 115.395 109.37 115.45C110.92 115.4 112.471 115.47 114.01 115.66C115.253 115.82 116.43 116.311 117.419 117.082C118.408 117.852 119.171 118.874 119.63 120.04C120.826 122.803 121.504 125.762 121.63 128.77C121.88 132.46 122 136.15 122.19 139.83ZM108.56 140H108.47C108.47 143.48 108.4 147 108.47 150.46C108.53 152.94 108.72 155.46 109 157.88C109.15 159.19 109.74 159.53 111 159.5C112.07 159.5 112.52 159.09 112.7 157.82C112.943 156.321 113.086 154.808 113.13 153.29C113.21 145.42 113.28 137.55 113.25 129.68C113.25 127.23 112.98 124.79 112.73 122.35C112.58 120.87 112.01 120.35 110.99 120.28C109.97 120.21 109.25 120.76 108.99 122.28C108.748 123.6 108.614 124.938 108.59 126.28C108.53 130.88 108.56 135.44 108.56 140Z" fill="#3D3D3D"/>
<path d="M68.12 112.771H60.82C63.13 96.7705 65.44 80.8305 67.76 64.7705C70.36 64.7705 72.87 64.7705 75.38 64.7705C75.61 64.7705 75.96 65.2805 76.01 65.6005C77.01 71.3005 78.01 77.0205 78.94 82.7305C80.58 92.3505 82.2233 101.967 83.87 111.581C83.93 111.921 83.95 112.261 84 112.681H75.27C75.06 110.901 74.84 109.101 74.65 107.291C74.41 105.081 74.43 105.071 72.23 105.091C71.17 105.091 69.75 104.791 69.16 105.351C68.57 105.911 68.74 107.351 68.61 108.351C68.44 109.861 68.29 111.261 68.12 112.771ZM71.59 78.7105H71.48C70.8533 85.7505 70.22 92.8005 69.58 99.8605H73.92C73.14 92.7505 72.36 85.7305 71.59 78.7105V78.7105Z" fill="#3D3D3D"/>
<path d="M179.41 96.8402C179.41 98.7502 179.35 100.57 179.41 102.38C179.451 103.655 179.608 104.924 179.88 106.17C179.981 106.745 180.299 107.258 180.768 107.604C181.237 107.951 181.822 108.103 182.4 108.03C182.945 108.067 183.483 107.894 183.903 107.546C184.324 107.198 184.595 106.702 184.66 106.16C185.26 104.166 185.37 102.056 184.98 100.011C184.59 97.9649 183.712 96.0436 182.42 94.4102C180.47 91.8602 178.42 89.4102 176.42 86.8602C174.298 84.3374 172.752 81.382 171.89 78.2002C171.05 74.3402 171.43 70.6002 173.98 67.4102C176.16 64.6902 179.28 64.2102 182.52 64.4102C188.19 64.7802 191.22 67.9502 191.52 73.8702C191.524 75.3125 191.393 76.7521 191.13 78.1702C191.087 78.3184 191.008 78.4536 190.9 78.5636C190.791 78.6736 190.658 78.7549 190.51 78.8002C188.38 78.8502 186.24 78.8002 184.14 78.8002C184.14 77.5502 184.14 76.3902 184.14 75.2402C184.088 73.9 183.954 72.5643 183.74 71.2402C183.719 70.9995 183.65 70.7654 183.538 70.5514C183.425 70.3374 183.272 70.1478 183.086 69.9935C182.9 69.8391 182.685 69.7232 182.454 69.6522C182.223 69.5813 181.981 69.5568 181.74 69.5802C181.496 69.5511 181.249 69.5725 181.014 69.6431C180.778 69.7136 180.56 69.8318 180.373 69.9904C180.185 70.1489 180.032 70.3443 179.923 70.5645C179.814 70.7847 179.752 71.0249 179.74 71.2702C179.12 74.1902 179.17 77.1102 180.89 79.6602C182.61 82.2102 184.73 84.7102 186.55 87.3002C188.496 89.8163 190.225 92.4926 191.72 95.3002C194.03 100.18 193.28 105.11 190.58 109.65C189.841 110.935 188.76 111.99 187.457 112.696C186.154 113.402 184.68 113.733 183.2 113.65C181.992 113.702 180.781 113.659 179.58 113.52C175.46 112.78 173.01 110.22 172.09 106.2C171.489 103.423 171.441 100.555 171.95 97.7602C172.06 97.1202 172.31 96.8202 173.02 96.8402C175.24 96.8702 177.44 96.8402 179.41 96.8402Z" fill="#3D3D3D"/>
<path d="M50.3 153.69C50.88 152.43 51.39 151.34 51.87 150.25C52.74 148.25 53.56 146.33 54.46 144.39C55.53 142.05 57.08 140.11 59.64 139.39C62.59 138.52 65.82 139.34 66.99 142.11C67.2722 142.706 67.3939 143.366 67.343 144.024C67.2921 144.681 67.0705 145.314 66.7 145.86C66.4585 146.264 66.0989 146.584 65.6697 146.777C65.2406 146.97 64.7625 147.027 64.3 146.94C63.35 146.8 63 146.1 62.83 145.28C62.69 144.65 62.63 143.99 62.47 143.36C62.02 141.49 60.4 140.77 58.88 141.95C57.8326 142.785 56.9766 143.836 56.37 145.03C54.71 148.4 53.25 151.86 51.72 155.3C51.6597 155.42 51.6242 155.551 51.6156 155.685C51.607 155.819 51.6255 155.953 51.67 156.08C52.91 158.46 54.39 160.65 56.85 161.95C57.5343 162.334 58.313 162.517 59.0967 162.478C59.8803 162.439 60.6371 162.18 61.28 161.73C62.18 161.16 63.01 160.49 63.87 159.86C64.87 160.63 64.95 160.95 64.1 161.68C62.8476 162.849 61.4769 163.885 60.01 164.77C58.923 165.385 57.6784 165.665 56.4328 165.574C55.1872 165.483 53.9963 165.026 53.01 164.26C51.777 163.322 50.6077 162.303 49.51 161.21C49.1839 160.843 48.8957 160.445 48.65 160.02C47.58 161.02 46.8 161.77 45.95 162.45C43.7692 164.225 41.1014 165.298 38.2986 165.527C35.4958 165.755 32.6896 165.129 30.25 163.73C28.7956 162.847 27.5906 161.608 26.7489 160.129C25.9072 158.65 25.4567 156.981 25.44 155.28C25.09 149.98 27.21 145.67 31.05 142.16C32.4688 140.902 33.9614 139.73 35.52 138.65C35.832 138.482 36.0668 138.199 36.1749 137.862C36.2831 137.524 36.2562 137.158 36.1 136.84C34.7762 133.084 34.3616 129.067 34.89 125.12C35.415 122.451 36.6783 119.983 38.5362 117.996C40.3941 116.009 42.7721 114.583 45.4 113.88C47.7057 113.26 50.1443 113.348 52.4 114.13C55.99 115.46 57.82 118.78 57.33 122.84C57.1065 124.612 56.5053 126.316 55.5668 127.836C54.6283 129.356 53.3744 130.656 51.89 131.65C49.08 133.65 46.01 135.36 43.01 137.12C42.17 137.61 41.83 138.04 42.32 138.96C44.82 143.68 47.32 148.41 49.79 153.14C49.9442 153.337 50.1148 153.521 50.3 153.69V153.69ZM37.37 141.16C37.2076 141.24 37.0505 141.33 36.9 141.43C33.5711 144.246 31.3726 148.171 30.71 152.48C30.2 156.08 31.16 159.22 34.4 161.29C36.2893 162.359 38.4806 162.768 40.6282 162.453C42.7758 162.138 44.7573 161.116 46.26 159.55C46.3975 159.444 46.5117 159.311 46.5954 159.159C46.6791 159.007 46.7306 158.84 46.7465 158.667C46.7625 158.494 46.7426 158.32 46.6882 158.156C46.6337 157.991 46.5458 157.839 46.43 157.71C44.29 154.22 42.18 150.71 40.19 147.13C39.13 145.24 38.33 143.22 37.37 141.16V141.16ZM41.11 135.49C44.83 133.25 48.54 131.39 51.31 128.22C52.651 126.616 53.4182 124.61 53.49 122.52C53.5902 121.71 53.4981 120.888 53.2212 120.121C52.9442 119.353 52.4902 118.662 51.896 118.103C51.3017 117.544 50.584 117.132 49.8011 116.903C49.0182 116.673 48.1922 116.631 47.39 116.78C46.0222 116.905 44.7137 117.398 43.6029 118.206C42.4921 119.014 41.6204 120.107 41.08 121.37C40.4314 122.966 40.0334 124.653 39.9 126.37C39.6515 129.461 40.064 132.57 41.11 135.49V135.49ZM51 159.9L51.18 159.76C50.66 158.93 50.18 158.09 49.62 157.26C46.1366 151.959 43.2173 146.308 40.91 140.4C38.86 134.91 37.66 129.29 38.61 123.4C38.6346 123.191 38.6346 122.979 38.61 122.77C38.2377 123.283 37.96 123.859 37.79 124.47C36.7397 128.753 36.9586 133.249 38.42 137.41C40.9109 145.029 44.7445 152.141 49.74 158.41C50.06 158.92 50.52 159.4 51 159.9Z" fill="#3D3D3D"/>
<path d="M189 156.751H199.18V163.751H180.74V116.221H198V123.221H189V136.221H197V142.811H189V156.751Z" fill="#3D3D3D"/>
<path d="M164.43 91.7802H156.55V105.68H166.75V112.68H148.25V65.2002H165.48V72.2002H157.34C156.88 72.2002 156.45 72.2002 156.45 72.8602C156.45 76.8602 156.45 80.8602 156.45 84.8602C156.474 84.9754 156.514 85.0866 156.57 85.1902H164.39L164.43 91.7802Z" fill="#3D3D3D"/>
<path d="M157.3 116.19H165.8V156.67H175.87V163.72H157.3V116.19Z" fill="#3D3D3D"/>
</svg>
