<svg width="225" height="227" viewBox="0 0 225 227" fill="none" xmlns="http://www.w3.org/2000/svg">
<path d="M184.58 2.57031H40.78C19.8981 2.57031 2.96997 19.4984 2.96997 40.3803V186.72C2.96997 207.602 19.8981 224.53 40.78 224.53H184.58C205.462 224.53 222.39 207.602 222.39 186.72V40.3803C222.39 19.4984 205.462 2.57031 184.58 2.57031Z" fill="white"/>
<path d="M224.28 113.39C224.28 138.237 224.28 163.087 224.28 187.94C224.28 210.48 208.07 226.64 185.47 226.65H39C16.6 226.65 0.359985 210.43 0.359985 188.04C0.359985 138.26 0.359985 88.477 0.359985 38.6904C0.359985 16.3204 16.61 0.120352 39.04 0.110352C87.8733 0.110352 136.703 0.110352 185.53 0.110352C208.11 0.110352 224.3 16.2904 224.3 38.8604C224.3 63.707 224.293 88.5504 224.28 113.39ZM5.53003 113.39C5.53003 138.237 5.53003 163.087 5.53003 187.94C5.53003 207.51 19.46 221.41 39.06 221.41H185.55C205.17 221.41 219.08 207.52 219.09 187.95V38.9004C219.09 19.1404 205.22 5.30035 185.43 5.30035H39.2C19.42 5.30035 5.54003 19.1504 5.53003 38.8904C5.52336 63.7437 5.52336 88.5904 5.53003 113.43V113.39Z" fill="#3D3D3D"/>
<path d="M82.88 76.5102C87.04 77.7102 90.94 78.5102 94.61 79.9502C112.49 86.9502 123.37 99.9502 126.25 118.88C128.113 131.284 125.115 143.927 117.883 154.174C110.65 164.422 99.7408 171.481 87.43 173.88C67.12 177.98 49.1599 172.88 34.3499 157.95C32.5537 156.195 31.4167 153.875 31.13 151.38C30.64 147.53 31.99 144.86 35.36 143.38C38.36 142.07 42.57 142.98 44.51 145.52C57.43 162.52 82.68 164.52 98.03 152.57C116.5 138.2 115.73 111.27 96.4699 97.9502C80.3099 86.7802 56.57 90.5002 44.58 106.07C41.74 109.757 38.6266 110.843 35.24 109.33C31.89 107.84 30.57 104.41 31.32 99.9202C32.24 94.4302 36.42 91.4101 40.26 88.3301C47.3817 82.5487 55.9264 78.7875 65 77.4402C66.57 77.2102 67.1999 76.6401 67.1599 74.9601C67.0399 69.6101 67.08 64.2502 67.08 58.9002C67.1939 56.879 68.0803 54.979 69.5558 53.5931C71.0314 52.2071 72.9832 51.4414 75.0075 51.4543C77.0319 51.4671 78.9738 52.2575 80.4316 53.6621C81.8895 55.0666 82.7518 56.9777 82.84 59.0002C82.89 64.8702 82.88 70.7302 82.88 76.5102Z" fill="#FA2521"/>
<path d="M157.35 76.1904C163.17 78.1904 168.8 79.5104 173.8 82.0404C191.99 91.2304 201 106.39 201.05 126.67C201.11 148.79 185.65 167.94 163.5 173.48C148.9 177.14 134.98 175.1 121.35 168L128.8 155.19C133.62 156.7 138.16 158.64 142.9 159.52C161.9 163.04 180.9 151.92 185.13 132.72C188.65 116.8 179.28 100.06 163.5 94.1704C152.57 90.0904 141.88 90.7903 131.42 95.8603L129.17 96.9304L120.62 84.1904C123.366 82.7308 126.187 81.4157 129.07 80.2504C132.492 79.099 135.982 78.1606 139.52 77.4404C141.21 77.0704 141.76 76.4404 141.7 74.6904C141.52 69.5104 141.51 64.3304 141.46 59.1504C141.46 54.7404 144.81 51.4804 149.38 51.4804C150.414 51.4578 151.442 51.6404 152.406 52.0175C153.369 52.3947 154.248 52.9589 154.991 53.6776C155.735 54.3964 156.329 55.2554 156.739 56.205C157.149 57.1546 157.367 58.1761 157.38 59.2104C157.37 65.0004 157.35 70.7604 157.35 76.1904Z" fill="#FA2521"/>
<path d="M59.49 134.21C49.99 134.21 40.49 134.27 30.99 134.21C28.9664 134.172 27.041 133.331 25.6372 131.873C24.2335 130.415 23.4665 128.459 23.505 126.435C23.5434 124.412 24.3842 122.486 25.8423 121.083C27.3004 119.679 29.2564 118.912 31.28 118.95C38.96 118.89 46.65 118.95 54.33 118.95C65.39 118.95 76.4466 118.95 87.5 118.95C89.0222 118.87 90.5328 119.255 91.8301 120.056C93.1274 120.856 94.1495 122.034 94.76 123.43C95.3909 124.716 95.6324 126.159 95.4548 127.58C95.2771 129.001 94.688 130.339 93.76 131.43C93.0267 132.393 92.0644 133.157 90.9606 133.653C89.8568 134.149 88.6466 134.361 87.44 134.27H59.44L59.49 134.21Z" fill="#FA2521"/>
<path d="M136.75 134.2C136.75 129.42 136.69 124.95 136.83 120.48C136.961 120.106 137.184 119.771 137.48 119.507C137.776 119.242 138.134 119.058 138.52 118.97C146.61 118.88 154.72 118.8 162.81 118.97C163.807 119.017 164.785 119.262 165.687 119.692C166.588 120.121 167.395 120.726 168.06 121.471C168.724 122.216 169.234 123.086 169.559 124.03C169.883 124.974 170.016 125.974 169.95 126.97C169.924 128.883 169.149 130.711 167.792 132.06C166.435 133.41 164.604 134.174 162.69 134.19C154.26 134.26 145.83 134.2 136.75 134.2Z" fill="#FA2521"/>
<path d="M39.82 56.1399C41.3731 56.141 42.9104 56.4511 44.3425 57.052C45.7746 57.6529 47.0728 58.5327 48.1616 59.6401C49.2505 60.7476 50.1081 62.0606 50.6847 63.5026C51.2613 64.9447 51.5452 66.4871 51.52 68.0399C51.37 74.3499 46.03 79.7399 39.97 79.6799C36.7874 79.6799 33.7352 78.4156 31.4847 76.1652C29.2343 73.9148 27.97 70.8625 27.97 67.6799C27.9882 66.1435 28.3095 64.6258 28.9153 63.2137C29.5211 61.8016 30.3996 60.5229 31.5004 59.4509C32.6012 58.3789 33.9026 57.5347 35.3303 56.9665C36.7579 56.3983 38.2836 56.1174 39.82 56.1399V56.1399Z" fill="#FA2521"/>
<path d="M112.63 56.1403C114.205 56.1459 115.763 56.4685 117.211 57.0888C118.659 57.7091 119.967 58.6144 121.058 59.7509C122.149 60.8874 123 62.2318 123.56 63.704C124.121 65.1762 124.379 66.7462 124.32 68.3203C124.1 74.4403 118.67 79.7703 112.74 79.6803C111.14 79.6839 109.556 79.3651 108.082 78.7429C106.608 78.1207 105.274 77.2079 104.161 76.0589C103.047 74.91 102.177 73.5485 101.601 72.0557C101.025 70.5629 100.756 68.9694 100.81 67.3703C100.914 64.3226 102.212 61.4377 104.423 59.3373C106.633 57.2368 109.581 56.0887 112.63 56.1403V56.1403Z" fill="#FA2521"/>
<path d="M172.74 67.7701C172.713 64.7222 173.892 61.7873 176.02 59.605C178.148 57.4228 181.052 56.1701 184.1 56.1201C190.93 56.1201 196.32 61.3601 196.25 67.9101C196.19 74.1101 190.85 79.5901 184.77 79.6801C183.195 79.6987 181.632 79.4042 180.172 78.8137C178.712 78.2232 177.384 77.3485 176.265 76.2405C175.145 75.1324 174.258 73.813 173.652 72.3589C173.047 70.9049 172.737 69.3451 172.74 67.7701V67.7701Z" fill="#FA2521"/>
</svg>
