<?xml version="1.0" encoding="UTF-8"?> <svg xmlns="http://www.w3.org/2000/svg" width="40" height="40" viewBox="0 0 40 40"><g fill="none" fill-rule="evenodd"><g><g><path fill="#F69A20" d="M15 23.444c0-3.926-3.183-7.109-7.11-7.109-3.926 0-7.109 3.183-7.109 7.11 0 1.701.599 3.264 1.596 4.488L7.89 35l5.487-7.03h-.004C14.39 26.74 15 25.164 15 23.444" transform="translate(-229 -360) translate(229 360)"></path><path fill="#FFFFFE" d="M7.89 19.808c2.072 0 3.75 1.679 3.75 3.75 0 2.07-1.678 3.75-3.75 3.75-2.07 0-3.75-1.68-3.75-3.75 0-2.071 1.68-3.75 3.75-3.75" transform="translate(-229 -360) translate(229 360)"></path><path fill="#62B5F8" d="M39.219 6.55c0-3.186-2.583-5.769-5.768-5.769-3.186 0-5.769 2.583-5.769 5.768 0 1.381.486 2.649 1.295 3.642l4.474 5.734 4.452-5.704H37.9c.824-.998 1.319-2.277 1.319-3.672" transform="translate(-229 -360) translate(229 360)"></path><path fill="#FFFFFE" d="M33.45 4.131c1.387 0 2.51 1.124 2.51 2.51 0 1.387-1.123 2.51-2.51 2.51-1.386 0-2.51-1.123-2.51-2.51 0-1.386 1.124-2.51 2.51-2.51" transform="translate(-229 -360) translate(229 360)"></path><path fill="#3C3D3E" d="M1.178 16.016c.065.017.13.025.193.025.349 0 .667-.236.757-.59l.027-.105c.109-.417-.142-.844-.56-.953-.417-.109-.843.141-.952.559l-.03.115c-.106.418.147.843.565.95M2.273 12.521c.108.05.221.075.333.075.293 0 .574-.166.707-.448 1.414-3 3.594-5.504 6.238-7.322.026.013.053.025.08.036l4.774 1.816c.112.042.184.151.18.27-.004.097.01.194.042.285.258.74.823 1.333 1.551 1.625.728.292 1.546.254 2.244-.103l.008-.005 1.038-.548c1.153-.61 2.484-.533 3.56.204 1.077.737 1.63 1.95 1.48 3.247l-.01.082c-.059.503-.406.9-.884 1.013-.517.122-1.105.262-1.609.383-1.022.244-1.816 1.067-2.024 2.097l-.67 3.32c-.158.78.034 1.587.528 2.213.493.626 1.233 1.001 2.03 1.03l.86.03c.148.006.291.04.427.1.103.046.211.068.318.068.299 0 .584-.172.714-.462.176-.394 0-.856-.395-1.032-.32-.143-.658-.222-1.008-.235l-.86-.03c-.337-.013-.65-.171-.86-.436-.208-.265-.29-.607-.223-.937l.67-3.32c.088-.435.424-.783.856-.886l1.605-.382c1.109-.262 1.943-1.207 2.077-2.353l.01-.082c.219-1.883-.584-3.647-2.148-4.717-1.564-1.071-3.499-1.182-5.174-.296l-1.033.545c-.298.152-.634.167-.945.042-.279-.112-.494-.318-.616-.587-.046-.715-.503-1.345-1.183-1.604l-3.732-1.42C13.88 2.36 16.887 1.563 20 1.563c2.032 0 4.028.329 5.934.976.408.139.852-.08.99-.489.14-.408-.08-.852-.488-.99C24.37.355 22.203-.002 20-.002c-3.867 0-7.619 1.106-10.85 3.198C6.001 5.233 3.494 8.098 1.9 11.48c-.184.39-.017.856.373 1.04M38.257 13.928c-.415.119-.654.552-.535.966.475 1.652.716 3.37.716 5.106 0 1.89-.285 3.754-.847 5.54-.13.411.1.85.511.98.078.024.157.035.235.035.332 0 .64-.213.745-.547C39.69 24.071 40 22.05 40 20c0-1.882-.261-3.745-.777-5.537-.119-.415-.552-.655-.966-.535M37.04 28.948c-.33-.195-.824-.14-1.08.29l-.004.007c-.252.433-.06.892.27 1.085.118.068.255.105.396.105.255 0 .519-.122.683-.4.253-.432.064-.892-.265-1.087M34.846 32.23c-.322-.287-.815-.26-1.103.062-1.068 1.192-2.277 2.229-3.59 3.094-.9-.406-1.845-1.37-1.752-2.882l.493-5.84c.036-.43-.283-.808-.713-.844-.43-.035-.808.282-.844.712l-.494 5.849-.001.016c-.098 1.55.591 2.994 1.785 3.893-2.632 1.393-5.59 2.147-8.627 2.147-.85 0-1.697-.059-2.535-.175l.729-1.323h.637c1.656 0 3.002-1.347 3.002-3.002v-1.078c0-.308.096-.601.278-.85.254-.348.178-.837-.17-1.091-.349-.255-.837-.179-1.092.17-.378.517-.578 1.13-.578 1.77v1.079c0 .794-.646 1.44-1.44 1.44h-1.099c-.284 0-.547.154-.684.404l-1.202 2.183c-1.686-.389-3.314-1.012-4.826-1.858-.377-.21-.853-.075-1.064.301-.21.377-.075.853.301 1.063C13.22 39.125 16.587 40 20 40c5.682 0 11.115-2.43 14.907-6.666.288-.322.26-.816-.061-1.103" transform="translate(-229 -360) translate(229 360)"></path><g fill="#3C3D3E"><path d="M33.45 1.631c.954 0 1.73.776 1.73 1.73 0 .952-.776 1.728-1.73 1.728-.953 0-1.728-.776-1.728-1.729 0-.953.775-1.729 1.729-1.729zm0 5.02c1.815 0 3.292-1.476 3.292-3.29 0-1.816-1.477-3.292-3.291-3.292-1.815 0-3.292 1.476-3.292 3.291s1.477 3.291 3.292 3.291zM12.717 24.265L7.891 30.45 3.008 24.19l-.025-.033c-.916-1.124-1.42-2.543-1.42-3.995 0-3.49 2.838-6.328 6.328-6.328 3.489 0 6.328 2.839 6.328 6.328 0 1.468-.514 2.898-1.447 4.028-.02.024-.038.049-.055.074zm1.308.861c.92-1.136 1.505-2.51 1.691-3.954l2.079 2.995c.151.219.395.336.642.336.154 0 .31-.045.445-.14.354-.245.442-.732.196-1.087l-3.42-4.929c-.036-.051-.077-.096-.121-.136-.871-3.41-3.97-5.938-7.646-5.938-4.351 0-7.891 3.54-7.891 7.89 0 1.802.623 3.563 1.755 4.962l.006.007 5.514 7.067c.148.19.375.301.616.301.24 0 .467-.11.615-.3l5.488-7.03.031-.044z" transform="translate(-229 -360) translate(229 360) translate(0 3.281)"></path></g><path fill="#3C3D3E" d="M7.89 26.527c-1.636 0-2.968-1.332-2.968-2.97 0-1.636 1.332-2.968 2.969-2.968 1.637 0 2.968 1.332 2.968 2.969 0 1.637-1.331 2.969-2.968 2.969zm0-7.5c-2.498 0-4.53 2.032-4.53 4.53 0 2.5 2.032 4.532 4.53 4.532 2.5 0 4.532-2.033 4.532-4.531 0-2.499-2.033-4.531-4.531-4.531zM33.45 1.562c2.75 0 4.987 2.238 4.987 4.987 0 1.157-.404 2.284-1.14 3.174-.018.022-.035.045-.05.07l-3.796 4.862-3.844-4.927-.024-.03c-.722-.886-1.12-2.004-1.12-3.149 0-2.75 2.238-4.987 4.988-4.987zm-5.094 9.103l.005.006 4.474 5.734c.148.19.375.301.615.301.241 0 .468-.11.616-.3L38.52 10.7c.01-.012.019-.024.027-.037C39.484 9.504 40 8.044 40 6.55 40 2.938 37.062 0 33.45 0c-3.61 0-6.549 2.939-6.549 6.55 0 1.495.517 2.956 1.455 4.116zM14.84 32.228l-.354.167c-.39.185-.557.65-.373 1.04.134.283.415.448.707.448.112 0 .226-.024.334-.075l.353-.167c.39-.184.557-.65.373-1.04-.185-.39-.65-.557-1.04-.373M33.45 19.851c-.43 0-.78.35-.78.782 0 .1-.006.202-.018.302-.048.428.26.815.689.864.03.003.06.005.089.005.392 0 .73-.295.775-.694.018-.158.027-.318.027-.477 0-.432-.35-.782-.781-.782M27.989 23.281c-.432 0-.781.35-.781.781 0 .432.35.782.78.782h.391c.432 0 .782-.35.782-.782 0-.431-.35-.78-.782-.78h-.39M31.396 22.896c-.085.053-.175.1-.266.142-.391.182-.562.646-.38 1.038.131.285.414.453.709.453.11 0 .221-.023.328-.073.144-.066.286-.142.422-.225.368-.224.485-.705.26-1.074-.223-.368-.704-.485-1.073-.26M19.614 28.088l-.21.33c-.23.363-.123.846.24 1.078.13.082.276.122.42.122.258 0 .51-.128.66-.362l.209-.33c.231-.364.124-.847-.24-1.079-.364-.231-.847-.123-1.079.24M22.579 24.88c-.364-.23-.847-.123-1.079.24l-.21.33c-.23.365-.123.847.241 1.079.13.082.275.122.419.122.258 0 .51-.128.66-.362l.21-.33c.23-.364.123-.847-.241-1.078M18.018 30.727l-.353.167c-.39.184-.557.65-.373 1.04.134.282.414.447.707.447.112 0 .226-.024.333-.075l.354-.166c.39-.185.557-.65.372-1.04-.184-.39-.65-.557-1.04-.373M24.473 23.281c-.431 0-.781.35-.781.781 0 .432.35.782.781.782h.39c.432 0 .782-.35.782-.782 0-.431-.35-.78-.781-.78h-.39" transform="translate(-229 -360) translate(229 360)"></path></g></g></g></svg> 