<?xml version="1.0" encoding="UTF-8"?> <svg xmlns="http://www.w3.org/2000/svg" width="34" height="40" viewBox="0 0 34 40"><g fill="none" fill-rule="evenodd"><g><g><path fill="#0A090B" d="M16 3.333h1.333c.368 0 .667-.298.667-.666 0-.369-.299-.667-.667-.667H16c-.368 0-.667.298-.667.667 0 .368.299.666.667.666" transform="translate(-361 -360) translate(361 360)"></path><path fill="#3C3D3E" d="M2 8.667h.667v10.666c0 .284.178.536.446.63.267.093.564.008.741-.213L6 17.067l2.146 2.683c.126.158.318.25.52.25.076 0 .15-.013.221-.037.267-.094.446-.347.446-.63V8.667h3.334c1.84.002 3.33 1.493 3.333 3.333v14.74c-.876-.9-2.078-1.407-3.333-1.407H1.333v-16c0-.368.299-.666.667-.666zm6 0v8.766l-1.48-1.85c-.126-.158-.317-.25-.52-.25s-.394.092-.52.25L4 17.434V8.667h4zM5.333 6H28v1.333h-7.333c-1.641.002-3.16.867-4 2.276-.84-1.41-2.36-2.274-4-2.276H5.333V6zM6 1.333h21.333c.368 0 .667.299.667.667v2.667H5.333V2c0-.368.299-.666.667-.667zm26 8v16H20.667c-1.256 0-2.458.508-3.334 1.407V12c.002-1.84 1.494-3.331 3.334-3.333h10.666c.368 0 .667.298.667.666zm-.667 20H17.401c.318-1.55 1.682-2.664 3.266-2.666H32v2c0 .368-.299.666-.667.666zM5.333 32H28v-1.333H5.333V32zM18 34.667c0 .736-.597 1.333-1.333 1.333-.737 0-1.334-.597-1.334-1.333 0-.737.597-1.334 1.334-1.334.736.001 1.332.598 1.333 1.334zm9.333 4H6c-.368 0-.666-.299-.667-.667v-4.667h9.038c-.24.404-.368.864-.371 1.334 0 1.472 1.194 2.666 2.667 2.666 1.472 0 2.666-1.194 2.666-2.666-.002-.47-.13-.93-.37-1.334H28V38c0 .368-.299.666-.667.667zm-26-10v-2h11.334c1.583.002 2.947 1.116 3.266 2.666H2c-.368 0-.666-.298-.667-.666zm.667 2h2V38c.001 1.104.896 1.999 2 2h21.333c1.104-.001 2-.896 2-2v-7.333h2c1.104-.002 2-.896 2-2V9.333c0-1.104-.896-1.998-2-2h-2V2c0-1.104-.896-1.999-2-2H6C4.896.001 4.001.896 4 2v5.333H2c-1.104.002-1.999.896-2 2v19.334c.001 1.104.896 1.998 2 2z" transform="translate(-361 -360) translate(361 360)"></path><path fill="#62B5F8" d="M8 8.667v8.766l-1.48-1.85c-.126-.158-.317-.25-.52-.25s-.394.092-.52.25L4 17.434V8.667h4z" transform="translate(-361 -360) translate(361 360)"></path></g></g></g></svg> 