<?xml version="1.0" encoding="UTF-8"?> <svg xmlns="http://www.w3.org/2000/svg" width="50" height="36" viewBox="0 0 50 36"><g fill="none" fill-rule="evenodd"><g><g><g fill="#3C3D3E"><path d="M48.112 28.982h-1.278V3.523c0-1.928-1.569-3.497-3.497-3.497H6.663c-1.928 0-3.497 1.57-3.497 3.497V15.26c0 .404.328.732.733.732.405 0 .732-.328.732-.732V3.523c0-1.12.911-2.032 2.032-2.032h36.674c1.12 0 2.032.912 2.032 2.032v25.459H4.631V18.187c0-.404-.327-.732-.732-.732-.405 0-.733.328-.733.732v10.795H1.825C.818 28.982 0 29.8 0 30.806v3.02c0 1.006.818 1.825 1.825 1.825h21.71c.405 0 .733-.328.733-.733 0-.404-.328-.732-.732-.732H1.825c-.198 0-.36-.161-.36-.36v-3.02c0-.198.161-.36.36-.36h17.444l.586 1.53c.246.641.873 1.072 1.56 1.072h7.17c.686 0 1.314-.43 1.56-1.072l.586-1.53h17.381c.234 0 .423.19.423.422v2.958c0 .199-.161.36-.36.36h-21.71c-.405 0-.733.328-.733.732 0 .405.328.733.732.733h21.712c1.006 0 1.824-.819 1.824-1.825V30.87c0-1.041-.847-1.887-1.888-1.887zm-19.335 2.47c-.03.078-.108.132-.192.132h-7.17c-.084 0-.161-.054-.192-.133l-.386-1.005h8.326l-.386 1.005z" transform="translate(-95 -362) translate(95 362)"></path><path d="M43.03 12.155c.405 0 .733-.328.733-.733V4.468c0-.672-.547-1.219-1.218-1.219H7.455c-.671 0-1.218.547-1.218 1.219v21.537c0 .672.547 1.219 1.218 1.219h35.09c.671 0 1.218-.547 1.218-1.219V14.35c0-.404-.328-.732-.732-.732-.405 0-.733.328-.733.732V25.76H7.702V4.714h34.596v6.708c0 .405.328.733.733.733z" transform="translate(-95 -362) translate(95 362)"></path></g><text fill="#E37474" font-family="Poppins" font-size="10" font-weight="bold" letter-spacing=".143" transform="translate(-95 -362) translate(95 362)"><tspan x="13.779" y="14.802">FREE</tspan></text></g></g></g></svg> 