<svg width="224" height="227" viewBox="0 0 224 227" fill="none" xmlns="http://www.w3.org/2000/svg">
<path d="M18 6.56007L20.13 5.00008L34.89 1.67007L188.11 1.33008L194.56 2.41008L205.11 5.89008L197.56 15.4401L197.89 37.2201L169.89 48.6701L156.48 78.2601L127.63 99.3001H85.26L60.67 78.5601L40.52 47.4401L30.44 40.0401L20.13 37.6701L18 8.63007V6.56007Z" fill="white"/>
<path d="M88.22 226.71H169.33L196.22 143L208.89 118.56L205.11 83.6699L144.44 92.1099L111.56 128.56L107.33 153.89L38.44 158.78V170.11L53.78 178.33L24 183.44L22.22 196.78L68.89 197.67L88.22 226.71Z" fill="white"/>
<path d="M106 226.71H99.83C71.6833 226.71 43.5267 226.71 15.36 226.71C4.45999 226.71 0.169983 222.37 0.169983 211.38C0.169983 153.9 0.133331 96.4197 0.0599976 38.9397C0.0599976 34.4797 0.969997 31.3297 5.06 29.4697C5.93 29.0697 6.59002 28.2097 7.46002 27.8197C14.56 24.6397 17.52 19.2897 16.09 11.4597C15.33 7.34973 16.84 4.62973 21.09 3.82973C27.32 2.66973 33.53 0.469727 39.75 0.429727C89.0833 0.149727 138.417 0.149727 187.75 0.429727C193.75 0.429727 199.75 3.07972 205.48 5.19972C206.73 5.65972 207.75 9.19973 207.48 11.1397C206.21 19.2797 209.15 24.7497 216.48 27.9497C222.48 30.5597 223.7 35.1997 223.67 41.5997C223.41 97.8897 223.52 154.19 223.52 210.49C223.52 222.68 219.52 226.66 207.4 226.66C189.34 226.66 171.28 226.66 153.22 226.66H146.22C148.41 214.08 150.45 202.33 152.56 190.24C157.77 190.24 162.56 190.24 167.44 190.24C174.53 190.18 177.64 187.98 180.12 181.24C180.536 180.143 180.87 179.016 181.12 177.87C184.37 162.3 180.63 159.87 168.68 160.87C165.42 161.13 162.14 160.87 158.17 160.87C159.77 150.09 160.39 139.71 166.03 130.64C167.723 127.886 170.011 125.546 172.726 123.791C175.441 122.037 178.514 120.912 181.72 120.5C183.82 120.16 185.97 120.11 188.09 119.92C193.09 119.47 201.09 121.58 201.96 115.92C203.04 109.19 200.21 101.51 197.82 94.6797C197.1 92.6197 192.33 91.2397 189.27 90.9197C156.09 87.4097 128.08 108.79 121.27 142.62C120.06 148.55 118.97 154.51 117.93 159.88L49.7 163.56V164.9C59.45 166.9 69.21 168.9 78.92 171.1C79.38 171.21 79.42 173.22 79.81 175.04L65.37 176.53C70.37 180.36 78.37 176.29 82.65 184.03L30.74 187.03V188.03L112.3 190.67L106 226.71ZM195.75 34.6297C195.75 30.2097 195.75 26.3097 195.75 22.4197C195.75 19.2797 195.15 15.7597 196.34 13.1197C197.53 10.4797 200.61 8.85973 203.63 6.06973C198.06 4.76973 193.03 2.61972 188 2.59972C137.16 2.33972 86.3166 2.33972 35.47 2.59972C30.47 2.59972 25.4 5.00973 20.36 6.29973L20.13 7.99973C27.4 8.73973 28.23 13.4697 27.97 19.1497C27.73 24.2097 27.92 29.2797 27.92 34.6297H195.75ZM110.64 92.9997C114.5 92.6397 118.42 92.6197 122.21 91.8697C142.21 87.8697 156.36 77.4697 160.62 56.0797C160.9 54.6697 162.28 53.4797 162.56 52.0797C162.97 49.9797 163.62 47.3197 162.71 45.7597C161.97 44.4697 158.63 43.4397 157.33 44.0997C155.69 44.9197 154.44 47.4497 153.96 49.4797C153.3 52.2897 153.87 55.3997 153.29 58.2497C150.19 73.4897 139.6 82.7097 122.11 85.5297C108.344 87.9446 94.1804 84.8367 82.69 76.8797C72.64 70.0897 66.16 61.0397 66.48 48.0197C66.48 46.6997 64.3 44.5197 62.82 44.1997C61.9129 44.1289 61.0022 44.2794 60.1661 44.6382C59.33 44.997 58.5936 45.5535 58.02 46.2597C57.19 47.5397 57.54 49.9097 58.02 51.6397C58.37 53.0297 60.02 54.0697 60.44 55.4597C68.21 79.6797 85.76 92.7697 110.64 92.9997Z" fill="#3D3D3D"/>
<path d="M66.19 11.7197C67.59 13.8197 70.3199 16.1197 70.0399 17.9597C69.7099 20.0797 67.04 22.9597 64.86 23.3997C61.44 24.1497 58.69 21.5097 59.33 17.8397C59.72 15.5997 62.1099 13.7197 63.5999 11.6797L66.19 11.7197Z" fill="#3D3D3D"/>
<path d="M156.3 10C159.05 13.7 161.47 15.56 161.89 17.81C162.59 21.53 159.77 24.13 156.37 23.42C154.18 22.97 151.28 20.15 150.98 18.05C150.71 16.18 153.58 13.86 156.3 10Z" fill="#3D3D3D"/>
</svg>
