<svg width="225" height="227" viewBox="0 0 225 227" fill="none" xmlns="http://www.w3.org/2000/svg">
<path d="M185.04 3.34961H41.24C20.3581 3.34961 3.43005 20.2777 3.43005 41.1596V187.5C3.43005 208.381 20.3581 225.31 41.24 225.31H185.04C205.922 225.31 222.85 208.381 222.85 187.5V41.1596C222.85 20.2777 205.922 3.34961 185.04 3.34961Z" fill="white"/>
<path d="M224.92 113.51C224.92 138.363 224.92 163.213 224.92 188.06C224.92 210.6 208.71 226.76 186.11 226.76H39.62C17.22 226.76 0.97998 210.53 0.97998 188.15C0.97998 138.363 0.97998 88.5764 0.97998 38.7897C0.97998 16.4297 17.23 0.219727 39.66 0.219727C88.4867 0.219727 137.317 0.219727 186.15 0.219727C208.73 0.219727 224.92 16.3997 224.92 38.9597C224.933 63.8131 224.933 88.6631 224.92 113.51ZM6.17004 113.51C6.17004 138.356 6.17004 163.206 6.17004 188.06C6.17004 207.63 20.1 221.53 39.7 221.53H186.19C205.81 221.53 219.72 207.64 219.73 188.06V38.9997C219.73 19.2397 205.86 5.38972 186.07 5.38972H39.84C20.06 5.38972 6.18004 19.2497 6.17004 38.9897V113.51Z" fill="#3D3D3D"/>
<path d="M50.29 182.15V44.83C50.2899 43.3255 50.6849 41.8474 51.4355 40.5435C52.1862 39.2396 53.2661 38.1558 54.5673 37.4004C55.8684 36.645 57.345 36.2446 58.8495 36.2393C60.354 36.234 61.8336 36.6239 63.14 37.37L183.29 106C184.606 106.751 185.699 107.837 186.46 109.147C187.221 110.457 187.621 111.945 187.621 113.46C187.621 114.975 187.221 116.463 186.46 117.773C185.699 119.083 184.606 120.169 183.29 120.92L63.14 189.59C61.835 190.335 60.3573 190.725 58.8545 190.721C57.3517 190.716 55.8764 190.318 54.5758 189.565C53.2753 188.812 52.1951 187.731 51.443 186.43C50.6909 185.128 50.2934 183.653 50.29 182.15Z" fill="#01579B"/>
<path d="M164.15 131.88V56.5596H90.95V173.71L164.15 131.88Z" fill="#00E5FF"/>
<path d="M90.95 173.71V56.5596H70.62V185.33L90.95 173.71Z" fill="#00B0FF"/>
<path d="M151.95 87.9096L141.82 81.8096L131.61 87.9096V56.5596H151.95V87.9096Z" fill="white"/>
</svg>
