<svg width="225" height="227" viewBox="0 0 225 227" fill="none" xmlns="http://www.w3.org/2000/svg">
<path d="M186.64 0.209961H38.31C17.4281 0.209961 0.5 17.1381 0.5 38.02V188.95C0.5 209.832 17.4281 226.76 38.31 226.76H186.64C207.522 226.76 224.45 209.832 224.45 188.95V38.02C224.45 17.1381 207.522 0.209961 186.64 0.209961Z" fill="#FB7816"/>
<path d="M224.46 113.51V188.06C224.46 210.6 208.24 226.76 185.65 226.76H39.15C16.75 226.76 0.52001 210.53 0.51001 188.15C0.51001 138.363 0.51001 88.5764 0.51001 38.7897C0.51001 16.4297 16.77 0.219727 39.19 0.219727C88.0167 0.219727 136.85 0.219727 185.69 0.219727C208.27 0.219727 224.45 16.3997 224.46 38.9597V113.51ZM5.70001 113.51C5.70001 138.356 5.70001 163.206 5.70001 188.06C5.70001 207.63 19.62 221.53 39.22 221.53H185.72C205.33 221.53 219.25 207.64 219.25 188.06C219.25 138.366 219.25 88.6731 219.25 38.9797C219.25 19.2197 205.38 5.36973 185.59 5.36973H39.37C19.59 5.36973 5.71002 19.2297 5.71002 38.9697C5.70336 63.8497 5.70001 88.7097 5.70001 113.55V113.51Z" fill="#3D3D3D"/>
<path d="M39.1799 70.18V159.76C39.1799 159.76 49.44 149.43 70.18 149.43C97.75 149.43 108.18 173.55 108.18 173.55V73.63C108.18 73.63 97.7499 53 73.6999 53C46.0699 53 39.1799 70.18 39.1799 70.18Z" fill="white"/>
<path d="M186 70.18V159.76C186 159.76 175.73 149.43 155 149.43C127.44 149.43 117 173.55 117 173.55V73.63C117 73.63 127.45 53 151.5 53C179.13 53 186 70.18 186 70.18Z" fill="white"/>
</svg>
