<svg width="224" height="227" viewBox="0 0 224 227" fill="none" xmlns="http://www.w3.org/2000/svg">
<path d="M183.8 2.56934H40.0001C19.1182 2.56934 2.19006 19.4974 2.19006 40.3793V186.719C2.19006 207.601 19.1182 224.529 40.0001 224.529H183.8C204.682 224.529 221.61 207.601 221.61 186.719V40.3793C221.61 19.4974 204.682 2.56934 183.8 2.56934Z" fill="white"/>
<path d="M223.17 113.39V187.58C223.17 210.02 207.03 226.1 184.54 226.1H38.7501C16.4601 226.1 0.300039 209.95 0.290039 187.67C0.290039 138.13 0.290039 88.583 0.290039 39.0296C0.290039 16.7696 16.47 0.649648 38.79 0.639648H184.58C207.05 0.639648 223.16 16.7496 223.17 39.1996V113.39ZM5.46008 113.39C5.46008 138.123 5.46008 162.853 5.46008 187.58C5.46008 207.06 19.3201 220.89 38.8301 220.89C87.4301 220.89 136.027 220.89 184.62 220.89C204.14 220.89 217.99 207.07 218 187.59V39.2496C218 19.5896 204.19 5.80963 184.5 5.80963H39.0001C19.3101 5.80963 5.50005 19.5996 5.49005 39.2496L5.46008 113.39Z" fill="#3D3D3D"/>
<path d="M165.77 92.7598H62.75L71 101.01L165.77 92.7598Z" fill="#3D3D3D"/>
<path d="M72.3499 59.6596V60.8896C70.606 59.6163 68.509 58.9173 66.3499 58.8896C59.0899 58.8896 53.6699 65.4096 53.6699 73.5296C53.6699 81.6496 59.2099 88.1796 66.3499 88.1796C68.5059 88.1334 70.5974 87.4362 72.3499 86.1796V87.4096H78.6299V59.6596H72.3499ZM66.3499 81.4396C62.7799 81.4396 60.1999 77.9896 60.1999 73.5596C60.1999 69.1296 62.7799 65.6896 66.3499 65.6896C69.9199 65.6896 72.3499 69.1296 72.3499 73.5596C72.3499 77.9896 69.8899 81.4396 66.3199 81.4396H66.3499Z" fill="#3D3D3D"/>
<path d="M123.06 59.6602V76.0002C123.06 79.0802 120.97 81.6702 117.89 81.6702C114.81 81.6702 112.72 79.0802 112.72 76.0002V59.6602H106.44V76.0002C106.44 82.7702 111 88.1902 117.77 88.1902C119.701 88.1481 121.579 87.551 123.18 86.4702V87.4702H129.58V59.6602H123.06Z" fill="#3D3D3D"/>
<path d="M182.14 87.4699V71.0999C182.14 68.0199 184.23 65.4399 187.31 65.4399C190.39 65.4399 192.47 68.0199 192.47 71.0999V87.4699H198.75V71.0999C198.75 64.3299 194.2 58.9199 187.43 58.9199C185.496 58.9607 183.614 59.5578 182.01 60.6399V59.6399H175.74V87.5699H182.14V87.4699Z" fill="#3D3D3D"/>
<path d="M35.43 87.4698V76.6398H40.1L48.23 87.4698H56.47L46.63 74.4198C48.707 72.9319 50.2587 70.8238 51.0621 68.3984C51.8655 65.9731 51.8793 63.3555 51.1014 60.9219C50.3235 58.4882 48.794 56.3639 46.7328 54.8542C44.6717 53.3446 42.1849 52.5272 39.63 52.5198H28.78V87.3498H35.43V87.4698ZM35.43 59.2898H39.73C40.4607 59.2584 41.1902 59.3752 41.8745 59.6332C42.5589 59.8911 43.184 60.2849 43.7121 60.7909C44.2402 61.2968 44.6605 61.9044 44.9476 62.577C45.2348 63.2497 45.3828 63.9734 45.3828 64.7048C45.3828 65.4362 45.2348 66.16 44.9476 66.8326C44.6605 67.5053 44.2402 68.1129 43.7121 68.6188C43.184 69.1247 42.5589 69.5185 41.8745 69.7765C41.1902 70.0344 40.4607 70.1512 39.73 70.1198H35.43V59.2898ZM146.57 80.9998C145.957 81.4453 145.227 81.7024 144.47 81.7398C144.041 81.7272 143.619 81.6258 143.23 81.442C142.842 81.2582 142.496 80.996 142.214 80.6719C141.933 80.3478 141.721 79.9687 141.593 79.5588C141.465 79.1488 141.423 78.7168 141.47 78.2898V66.2998H146.89V59.6598H141.47V52.6598H135.07V59.6598H131.75V66.2998H135.07V78.3598C135.005 79.6464 135.202 80.9329 135.649 82.1412C136.095 83.3495 136.783 84.4546 137.669 85.3895C138.555 86.3244 139.622 87.0697 140.805 87.5803C141.988 88.0909 143.262 88.356 144.55 88.3598C146.707 88.2786 148.814 87.6893 150.7 86.6398L146.57 80.9998ZM94.38 72.7498L105.38 59.7498H96.51L88.88 69.4698V50.2998H82.36V87.4698H88.88V75.9998L98.24 87.4498H107.1L94.38 72.7498Z" fill="#3D3D3D"/>
<path d="M161.21 58.9199C153.83 58.9199 148.66 65.3199 148.66 73.5599C148.66 82.1799 155.3 88.2099 161.83 88.2099C165.15 88.2099 169.46 87.0999 173.03 81.9299L167.49 78.7299C163.18 85.1299 155.92 81.9299 155.06 75.5299H173.27C174.87 65.4399 168.35 58.9199 161.21 58.9199V58.9199ZM166.75 69.9899H155.3C156.66 63.4699 165.52 63.0999 166.75 69.9999V69.9899Z" fill="#3D3D3D"/>
<path d="M28.86 112.13H39.72V150.27L54.43 132.8H67.4301L50.43 152.62L68.96 178.62H56.18L39.99 155.62H39.77V178.62H28.86V112.13Z" fill="#3D3D3D"/>
<path d="M88.09 131.74C74.88 131.74 67.85 140.69 67.85 155.81C67.85 170.73 74.85 179.68 88.09 179.89C101.3 179.89 108.33 170.94 108.33 155.81C108.33 140.68 101.3 131.74 88.09 131.74ZM88.09 172.22C80.42 172.22 79.35 164.34 79.14 155.81C79.14 147.29 80.42 139.41 88.09 139.41C95.97 139.41 97.09 147.29 97.09 155.81C97.09 164.33 95.76 172.22 88.09 172.22Z" fill="#3D3D3D"/>
<path d="M137.1 131.74C130.1 131.74 126.66 136 124.95 138.34V112.13H114.3V159.22C114.3 173.07 121.3 179.89 133.48 179.89C148.39 179.89 152.86 168.6 152.86 155.81C152.86 141.11 148.18 131.74 137.1 131.74ZM133.48 172.22C126.66 172.22 124.95 167.32 124.95 155.81C124.95 147.93 127.08 138.56 133.48 138.56C140.72 138.56 141.57 147.5 141.57 155.81C141.57 163.27 140.29 172.22 133.48 172.22Z" fill="#3D3D3D"/>
<path d="M178.43 131.74C165.22 131.74 158.19 140.69 158.19 155.81C158.19 170.73 165.19 179.68 178.43 179.89C191.64 179.89 198.68 170.94 198.68 155.81C198.68 140.68 191.64 131.74 178.43 131.74ZM178.65 172.22C170.76 172.22 169.65 164.34 169.65 155.81C169.65 147.28 170.93 139.41 178.65 139.41C186.53 139.41 187.6 147.29 187.6 155.81C187.6 164.33 186.32 172.22 178.65 172.22Z" fill="#3D3D3D"/>
</svg>
