<svg width="105" height="30" viewBox="0 0 105 30" fill="none" xmlns="http://www.w3.org/2000/svg">
<path fill-rule="evenodd" clip-rule="evenodd" d="M30.1261 20.0553C30.3937 18.5565 30.0725 14.6489 29.1625 8.38601C28.8949 6.45898 27.6637 4.79959 25.9508 3.94313C20.8121 1.58787 17.6539 0.249655 16.4227 0.0355403C15.0845 -0.178574 12.194 0.570827 7.75108 2.3908C6.84109 2.7655 6.03816 3.35432 5.39582 4.15725C2.07704 8.38601 0.257065 11.116 0.0429507 12.3471C-0.171164 13.5248 0.417651 16.7365 1.75587 21.9288C2.13057 23.4811 3.20114 24.8193 4.59289 25.5687C9.73164 28.2451 12.8898 29.7439 14.1745 29.9581C15.5663 30.2257 18.8315 29.2087 23.9703 27.014C24.5055 26.7999 25.0408 26.4787 25.4691 26.104C28.3061 23.6952 29.8049 21.7146 30.1261 20.0553ZM25.5226 4.79959C26.9679 5.49546 28.0384 6.88721 28.2526 8.49307C29.109 14.6489 29.4302 18.5029 29.1625 19.9482C28.8949 21.2864 27.4496 23.2134 24.8267 25.4617C24.452 25.7828 24.0238 25.9969 23.5956 26.2111C18.6174 28.3522 15.4592 29.3157 14.3351 29.1016C13.211 28.8875 10.0528 27.4422 5.02112 24.7658C3.84349 24.1234 2.9335 22.9993 2.61233 21.7146C1.27411 16.683 0.738823 13.5248 0.899409 12.5612C1.11352 11.5442 2.87997 8.86777 6.09169 4.74606C6.62698 4.05019 7.32285 3.56843 8.07225 3.24726C12.3545 1.48081 15.138 0.731413 16.2086 0.945527C17.3327 1.15964 20.4909 2.44433 25.5226 4.79959ZM24.7732 21.5005C26.1114 19.4664 26.8073 17.9141 26.8073 16.8971C26.8073 15.773 26.0579 13.3642 24.6126 9.56364C23.9167 7.95778 22.632 6.67309 21.0262 6.03075C17.3327 4.58548 15.031 3.83607 14.121 3.83607C13.1575 3.83607 11.284 4.69253 8.50048 6.40545C7.53696 7.04779 6.73403 7.85072 6.19875 8.86777C4.4323 12.1865 3.57584 14.2742 3.57584 15.1841C3.57584 15.9871 4.21819 17.8071 5.44934 20.6441C6.3058 22.6246 8.12578 24.0164 10.2669 24.3376C12.8898 24.7658 14.6027 24.9799 15.4057 24.9799C16.2086 24.9799 17.9215 24.7658 20.4909 24.3376C22.2573 24.0164 23.8097 22.9993 24.7732 21.5005ZM14.0675 4.79959C14.8169 4.79959 17.0651 5.54899 20.6515 6.94074C22.0432 7.47602 23.1673 8.5466 23.7561 9.99187C25.2014 13.6318 25.9508 15.9871 25.9508 16.9506C25.9508 17.7535 25.3085 19.1453 24.0773 21.0723C23.2209 22.357 21.8826 23.2134 20.3838 23.4811C17.9215 23.8558 16.2086 24.0699 15.4592 24.0699C14.7098 24.0699 12.9969 23.8558 10.4275 23.4276C8.60754 23.1599 7.0552 21.9823 6.3058 20.2694C5.07464 17.5394 4.48583 15.773 4.48583 15.1841C4.48583 14.4883 5.34229 12.4542 7.00168 9.296C7.48343 8.43954 8.17931 7.69014 8.98223 7.20838C11.6051 5.60252 13.3716 4.79959 14.0675 4.79959ZM22.632 16.79C22.6856 16.1477 21.8291 14.1136 20.0091 10.8483C19.0456 9.08188 17.2792 7.95778 15.2451 7.79719H14.9774C12.9434 7.63661 10.9628 8.60012 9.83869 10.3666C8.44695 12.5612 7.75108 14.0065 7.69755 14.5953C7.64402 15.0771 7.96519 16.2547 8.66106 18.1282C9.08929 19.4664 10.3205 20.3764 11.7122 20.4835C12.301 20.537 14.3351 20.6976 17.8145 20.9652C20.3303 21.1258 22.4715 19.3059 22.632 16.79ZM15.2451 8.65365C16.958 8.76071 18.5103 9.72423 19.3133 11.223C19.59 11.7592 19.85 12.2563 20.0914 12.7179C20.5971 13.6847 21.0213 14.4957 21.3474 15.1841C21.7221 16.0406 21.8826 16.6294 21.8826 16.79C21.7221 18.8241 19.9556 20.3229 17.9215 20.1623C14.4422 19.8947 12.4081 19.7341 11.8193 19.6806C10.7487 19.627 9.83869 18.9312 9.46399 17.9141C8.82165 16.1477 8.55401 15.0236 8.55401 14.7024C8.60754 14.2742 9.30341 12.9359 10.5881 10.8483C11.5516 9.34953 13.211 8.49307 14.9774 8.65365H15.2451ZM12.0334 14.2206C11.8728 15.88 13.1039 17.3253 14.7633 17.4324C16.4227 17.5394 17.868 16.3083 17.975 14.7024C18.1356 13.043 16.9045 11.5977 15.2451 11.4907C13.5857 11.3301 12.194 12.5612 12.0334 14.2206ZM95.1357 4.47738C95.1357 4.79856 95.2428 5.11973 95.4569 5.33384C95.671 5.54796 95.9922 5.65501 96.3669 5.70854H97.4375C97.8122 5.70854 98.1333 5.54796 98.3475 5.33384C98.5616 5.11973 98.6686 4.79856 98.6686 4.47738V3.9421C98.6686 3.62092 98.5616 3.29975 98.3475 3.08564C98.1333 2.81799 97.8122 2.71094 97.4375 2.71094H96.3669C95.9922 2.71094 95.671 2.87152 95.4569 3.08564C95.2428 3.29975 95.1357 3.62092 95.1357 3.9421V4.47738ZM95.3499 19.1978C95.3499 19.5189 95.4034 19.733 95.564 19.8936C95.7246 20.0542 95.9387 20.1077 96.2598 20.1077H97.5445C97.8657 20.1077 98.0798 20.0542 98.2404 19.8936C98.401 19.733 98.4545 19.5189 98.4545 19.1978V8.75968C98.4545 8.4385 98.401 8.22439 98.2404 8.0638C98.0798 7.90322 97.8657 7.84969 97.5445 7.84969H96.2598C95.9387 7.84969 95.7246 7.90322 95.564 8.0638C95.4034 8.17086 95.3499 8.4385 95.3499 8.75968V19.1978ZM37.4314 25.0852C37.2708 24.9246 37.2173 24.7105 37.2173 24.3893V9.02658C37.8596 8.54482 38.6626 8.17012 39.6796 7.84895C40.6966 7.52777 41.7672 7.36719 42.7843 7.36719C47.4948 7.36719 49.85 9.56186 49.85 13.9512C49.85 15.9853 49.3148 17.5376 48.2977 18.7153C47.2807 19.8929 45.8354 20.4817 44.069 20.4817C42.4096 20.4817 41.1784 20 40.2684 18.9829V24.3358C40.2684 24.6569 40.2149 24.8711 40.0543 25.0316C39.8937 25.1922 39.6796 25.2458 39.3584 25.2458H38.1273C37.8061 25.2993 37.592 25.2458 37.4314 25.0852ZM45.9425 17.0559C46.5313 16.3065 46.7989 15.2359 46.7989 13.8977C46.7989 12.3989 46.4777 11.3283 45.7819 10.7395C45.086 10.1507 44.069 9.77598 42.7307 9.77598C41.7137 9.77598 40.9108 9.93656 40.3219 10.2577V15.343C40.3219 16.1994 40.5896 16.8953 41.1784 17.4306C41.7672 17.9659 42.4631 18.18 43.3731 18.18C44.4972 18.18 45.3536 17.8053 45.9425 17.0559ZM55.1495 19.8411C54.1325 19.4129 53.3296 18.6635 52.6872 17.7535C52.0984 16.79 51.7772 15.6124 51.7772 14.2206C51.7772 12.0259 52.3125 10.313 53.4366 9.18893C54.5607 8.06483 56.1666 7.47601 58.2007 7.47601C60.2347 7.47601 61.7871 8.0113 62.8577 9.1354C63.9282 10.2595 64.41 11.8654 64.41 13.953C64.41 14.5418 64.1423 14.863 63.6071 14.863H54.6678C54.6678 15.9871 55.0425 16.8435 55.7919 17.4859C56.5413 18.0747 57.5583 18.3959 58.8965 18.3959C60.1812 18.3959 61.3589 18.0747 62.3759 17.4859C62.483 17.4323 62.59 17.3788 62.6435 17.3788C62.7506 17.3788 62.8577 17.4323 62.9112 17.5929L63.5 18.717C63.5535 18.8241 63.5535 18.9311 63.5535 18.9847C63.5535 19.0917 63.5 19.1988 63.3394 19.3058C62.6971 19.7341 61.9477 20.0552 61.1983 20.2694C60.4489 20.4835 59.5389 20.5905 58.5218 20.5905C57.3442 20.537 56.1666 20.2694 55.1495 19.8411ZM60.77 10.4201C61.349 11.0517 61.6174 11.8385 61.6263 12.8824H54.7213C54.7213 11.8654 55.0425 11.0624 55.6313 10.4201C56.2201 9.83127 57.1301 9.5101 58.2542 9.5101C59.3783 9.5101 60.2347 9.83127 60.77 10.4201ZM66.8722 19.1988C66.8722 19.52 66.9257 19.7341 67.0863 19.8947C67.2469 20.0552 67.461 20.1088 67.8357 20.1088H69.1204C69.4416 20.1088 69.6557 20.0552 69.8163 19.8947C69.9769 19.7341 70.0304 19.52 70.0304 19.1988V12.4007C70.0304 11.6512 70.3516 11.0089 70.9939 10.5271C71.6362 10.0454 72.3856 9.77775 73.2421 9.77775C74.045 9.77775 74.6339 9.93833 75.0086 10.313C75.3832 10.6342 75.5438 11.223 75.5438 12.0795V19.2523C75.5438 19.5735 75.5974 19.7876 75.7579 19.9482C75.9185 20.1088 76.1327 20.1623 76.4538 20.1623H77.7385C78.0597 20.1623 78.2738 20.1088 78.4344 19.9482C78.595 19.7876 78.6485 19.5735 78.6485 19.2523V11.9189C78.6485 10.4201 78.2203 9.29599 77.4173 8.54659C76.6144 7.79719 75.5974 7.42249 74.2591 7.42249C72.1715 7.42249 70.6192 8.06483 69.4951 9.34952L69.4416 8.33247C69.4416 7.95777 69.281 7.79719 68.9063 7.79719H67.5145C67.2469 7.79719 67.0863 7.85071 66.9792 7.95777C66.9257 8.06483 66.8722 8.22542 66.8722 8.49306V19.1988ZM82.7167 18.8241C81.4855 17.7 80.8967 16.0941 80.8967 14.0065C80.8967 12.7218 81.1644 11.5442 81.6997 10.5807C82.2349 9.56363 83.0379 8.81423 84.0549 8.27894C85.072 7.74366 86.3031 7.42249 87.6949 7.42249C88.7119 7.42249 89.5684 7.52954 90.3178 7.74366C91.0136 7.95777 91.7095 8.27894 92.2983 8.7607C92.4589 8.86776 92.5124 8.97482 92.5124 9.08187C92.5124 9.16024 92.4838 9.23862 92.4474 9.33799C92.4341 9.37436 92.4197 9.41355 92.4054 9.45657L91.763 10.6877L91.742 10.7196L91.7233 10.7482C91.641 10.8746 91.5884 10.9554 91.4954 10.9554C91.3883 10.9554 91.2813 10.9018 91.1742 10.7948C90.6925 10.4736 90.1572 10.206 89.6754 10.0454C89.1937 9.8848 88.6049 9.77775 87.909 9.77775C86.6778 9.77775 85.7143 10.1524 85.0184 10.9018C84.3226 11.6512 83.9479 12.7218 83.9479 14.0065C83.9479 15.3983 84.3226 16.4153 85.0184 17.1112C85.7143 17.807 86.7313 18.1282 88.0696 18.1282C88.7654 18.1282 89.3543 18.0212 89.836 17.8606C90.3178 17.7 90.8531 17.4323 91.2813 17.1112C91.3883 17.0041 91.4954 17.0041 91.6025 17.0041C91.7095 17.0041 91.8166 17.1112 91.8701 17.2718L92.566 18.5564C92.5803 18.5851 92.5947 18.61 92.608 18.633C92.6443 18.696 92.673 18.7457 92.673 18.8241C92.673 18.9311 92.566 19.0382 92.4054 19.1988C91.763 19.627 91.0672 19.9482 90.3178 20.1623C89.5684 20.3764 88.7119 20.4835 87.6949 20.4835C85.6072 20.537 83.9479 19.9482 82.7167 18.8241ZM101.773 19.8936C101.612 19.733 101.559 19.5189 101.559 19.1978V3.62092C101.559 3.29975 101.612 3.03211 101.773 2.92505C101.933 2.76447 102.147 2.71094 102.469 2.71094H103.753C104.074 2.71094 104.289 2.76447 104.449 2.92505C104.61 3.08564 104.663 3.29975 104.663 3.62092V19.1978C104.663 19.5189 104.61 19.733 104.449 19.8936C104.289 20.0542 104.074 20.1077 103.753 20.1077H102.469C102.147 20.1077 101.88 20.0542 101.773 19.8936Z" fill="#3D3D3D"/>
</svg>
