<svg width="223" height="226" viewBox="0 0 223 226" fill="none" xmlns="http://www.w3.org/2000/svg">
<path d="M183.42 2.26953H39.62C18.7381 2.26953 1.81 19.1977 1.81 40.0795V186.42C1.81 207.301 18.7381 224.23 39.62 224.23H183.42C204.302 224.23 221.23 207.301 221.23 186.42V40.0795C221.23 19.1977 204.302 2.26953 183.42 2.26953Z" fill="white"/>
<path d="M223 113C223 137.733 223 162.463 223 187.19C223 209.62 206.86 225.71 184.37 225.71H38.57C16.28 225.71 0.119985 209.56 0.109985 187.28C0.109985 137.727 0.109985 88.18 0.109985 38.64C0.109985 16.38 16.29 0.25 38.61 0.25C87.21 0.25 135.807 0.25 184.4 0.25C206.87 0.25 222.98 16.35 222.99 38.81L223 113ZM5.27998 113C5.27998 137.733 5.27998 162.463 5.27998 187.19C5.27998 206.67 19.14 220.5 38.65 220.5H184.44C203.96 220.5 217.81 206.68 217.82 187.2V38.83C217.82 19.17 204.01 5.39 184.32 5.39C135.813 5.39 87.3033 5.39 38.79 5.39C19.1 5.39 5.28998 19.18 5.27998 38.82V113Z" fill="#3D3D3D"/>
<path d="M110.11 124.07C107.268 123.858 104.553 122.807 102.309 121.051C100.065 119.295 98.392 116.913 97.5024 114.205C96.6129 111.498 96.5465 108.588 97.3118 105.843C98.0771 103.098 99.6396 100.642 101.802 98.7852C103.963 96.9288 106.628 95.7555 109.457 95.4139C112.286 95.0723 115.153 95.5778 117.694 96.8663C120.236 98.1549 122.338 100.169 123.735 102.652C125.131 105.136 125.76 107.979 125.54 110.82C125.4 112.704 124.889 114.542 124.037 116.228C123.185 117.915 122.008 119.417 120.575 120.647C119.142 121.878 117.479 122.814 115.683 123.402C113.888 123.989 111.994 124.216 110.11 124.07ZM131.85 94.19C129.886 90.6411 127.054 87.6478 123.62 85.4899C120.185 83.3319 116.26 82.0796 112.21 81.85L110.86 81.76C106.71 81.436 102.55 82.2488 98.8273 84.1111C95.1045 85.9734 91.9594 88.8148 89.73 92.33C83.43 102.28 80.07 108.83 79.92 110.8C79.8 112.38 81.26 117.8 84.29 126.21C85.1447 128.579 86.6662 130.65 88.6711 132.174C90.676 133.698 93.0787 134.61 95.59 134.8C98.47 135.027 108.28 135.77 125.02 137.03C129.717 137.394 134.366 135.879 137.945 132.817C141.525 129.755 143.742 125.396 144.11 120.7C144.17 119.95 143.3 117.14 141.45 112.97C139.383 108.303 136.183 102.043 131.85 94.19V94.19ZM135.41 92.24C144.17 108.08 148.42 117.667 148.16 121C147.705 126.766 144.982 132.116 140.588 135.877C136.194 139.638 130.487 141.502 124.72 141.06C107.98 139.8 98.1666 139.057 95.28 138.83C91.9872 138.581 88.8366 137.386 86.2073 135.388C83.578 133.391 81.5821 130.676 80.46 127.57C77.2133 118.57 75.6833 112.873 75.87 110.48C76.09 107.547 79.5633 100.773 86.29 90.16C88.9165 86.0221 92.6199 82.6771 97.003 80.4838C101.386 78.2905 106.283 77.3316 111.17 77.71L112.44 77.8C117.181 78.0634 121.778 79.5254 125.801 82.0491C129.823 84.5728 133.14 88.0757 135.44 92.23L135.41 92.24ZM138.44 73.39C121.23 66.62 110.3 63.15 106.68 63.13C103.27 63.13 94.68 67.01 82.04 74.79C78.0548 77.2412 74.7987 80.7149 72.61 84.85C64.61 100 60.47 109.85 60.45 113.16C60.45 116.02 63.35 124.51 69.12 137.62C70.8818 141.623 73.6191 145.121 77.0814 147.794C80.5438 150.467 84.6209 152.229 88.94 152.92C101.4 154.92 109.55 155.92 113.11 155.92C116.83 155.92 124.87 154.92 136.96 152.92C140.553 152.326 143.983 150.989 147.03 148.996C150.078 147.002 152.677 144.394 154.66 141.34C160.66 132.01 163.66 125.22 163.71 121.45C163.71 116.85 160.21 105.39 153.13 87.88C151.785 84.5936 149.786 81.6152 147.253 79.1259C144.721 76.6366 141.709 74.6885 138.4 73.4L138.44 73.39ZM168.11 121.57C168.07 126.417 164.813 133.837 158.34 143.83C156.022 147.405 152.983 150.457 149.419 152.792C145.855 155.127 141.843 156.693 137.64 157.39C125.3 159.43 117.097 160.43 113.03 160.39C109.17 160.39 100.893 159.36 88.2 157.3C83.1466 156.496 78.3754 154.439 74.3225 151.315C70.2696 148.192 67.0644 144.102 65 139.42C58.94 125.653 55.9233 116.893 55.95 113.14C55.95 108.793 60.1766 98.6733 68.63 82.78C71.1822 77.9491 74.9801 73.8888 79.63 71.02C93.05 62.7734 102.05 58.6667 106.63 58.7C111.043 58.7 122.163 62.2234 139.99 69.27C143.855 70.7909 147.371 73.0823 150.323 76.0048C153.274 78.9274 155.601 82.4199 157.16 86.27C164.493 104.37 168.13 116.13 168.07 121.55L168.11 121.57ZM175 81C174.448 77.1892 172.958 73.5753 170.662 70.4838C168.367 67.3923 165.338 64.9202 161.85 63.29C137.65 51.99 122.47 45.74 117.05 44.74C111.87 43.79 98.41 47.42 77.77 55.74C74.0291 57.2506 70.7476 59.7118 68.25 62.88C52.66 82.63 44.25 95.59 43.25 100.52C42.38 105.25 45.11 120.4 51.47 144.68C52.2804 147.792 53.7293 150.702 55.7246 153.224C57.7199 155.746 60.2179 157.825 63.06 159.33C87.23 172.11 102.49 179.14 107.98 180.15C113.47 181.16 128.73 176.55 152.64 166.3C154.819 165.371 156.842 164.113 158.64 162.57C171.38 151.57 178.3 142.57 179.52 135.91C180.74 129.25 179.28 110.63 175 81ZM179.36 80.37C183.74 110.543 185.247 129.323 183.88 136.71C182.433 144.617 174.987 154.357 161.54 165.93C159.407 167.764 157.005 169.261 154.42 170.37C129.6 181.037 113.87 185.747 107.23 184.5C101.077 183.387 85.6666 176.307 61 163.26C57.6174 161.467 54.6441 158.991 52.2685 155.989C49.893 152.987 48.167 149.524 47.2 145.82C40.64 120.76 37.8766 105.397 38.91 99.73C39.9966 93.77 48.6066 80.5733 64.74 60.14C67.7144 56.3689 71.6239 53.442 76.08 51.65C97.56 42.9833 111.463 39.2333 117.79 40.4C123.75 41.5 139.04 47.7933 163.66 59.28C167.814 61.2226 171.42 64.1684 174.152 67.8519C176.884 71.5353 178.657 75.8407 179.31 80.38" fill="#3D3D3D"/>
</svg>
