<svg width="225" height="227" viewBox="0 0 225 227" fill="none" xmlns="http://www.w3.org/2000/svg">
<path d="M185.04 2.57031H41.24C20.3581 2.57031 3.43005 19.4984 3.43005 40.3803V186.72C3.43005 207.602 20.3581 224.53 41.24 224.53H185.04C205.922 224.53 222.85 207.602 222.85 186.72V40.3803C222.85 19.4984 205.922 2.57031 185.04 2.57031Z" fill="white"/>
<path d="M224.92 113.39C224.92 138.237 224.92 163.087 224.92 187.94C224.92 210.48 208.71 226.64 186.11 226.65H39.61C17.22 226.65 0.97998 210.43 0.97998 188.04C0.97998 138.26 0.97998 88.477 0.97998 38.6904C0.97998 16.3204 17.23 0.120352 39.66 0.110352C88.4867 0.110352 137.317 0.110352 186.15 0.110352C208.73 0.110352 224.91 16.2904 224.92 38.8604C224.933 63.707 224.933 88.5504 224.92 113.39ZM6.17004 113.39C6.17004 138.237 6.17004 163.087 6.17004 187.94C6.17004 207.51 20.09 221.41 39.7 221.41H186.19C205.81 221.41 219.72 207.52 219.73 187.95V38.9004C219.73 19.1404 205.86 5.30035 186.07 5.30035H39.84C20.05 5.30035 6.17004 19.1504 6.17004 38.8904C6.16338 63.7437 6.16338 88.5904 6.17004 113.43V113.39Z" fill="#3D3D3D"/>
<path d="M118.29 177.361C127.73 177.361 136.51 176.091 144.63 171.811C150.775 168.721 155.723 163.681 158.7 157.481C159.923 154.931 160.274 152.05 159.7 149.281C159.23 146.841 157.7 145.681 155.26 145.561C152.82 145.441 150.75 146.291 148.51 146.711C135.76 149.101 123.9 138.281 125.41 124.641C126.77 112.321 136.23 104.311 148.62 104.131C159.62 103.981 171.3 110.131 175.62 124.021C180.78 140.821 178.96 156.811 168.68 171.301C162.68 179.711 154.12 184.791 144.54 188.161C134 191.881 123.05 192.471 111.99 191.771C98.6123 190.926 85.5655 187.255 73.71 181.001C65.05 176.501 57.47 170.531 50.33 163.941C49.58 163.251 49.85 162.861 50.33 162.291C56.63 154.864 62.9233 147.427 69.21 139.981C69.72 139.381 70.07 139.271 70.74 139.791C74.12 142.441 77.52 145.071 80.96 147.641C81.88 148.321 81.53 148.751 80.96 149.391C77.77 153.071 74.6401 156.811 71.4301 160.471C70.6701 161.331 70.74 161.731 71.67 162.381C83.1021 170.557 96.4754 175.597 110.46 177.001C113.2 177.241 116 177.261 118.29 177.361Z" fill="#01858E"/>
<path d="M114.56 48.4802C102.81 48.2802 93.7601 50.3302 85.5601 55.4802C80.0701 58.9602 75.9001 63.5502 74.5601 70.1702C74.1572 72.0195 74.0827 73.9252 74.34 75.8002C74.3678 76.3758 74.5106 76.9401 74.7598 77.4597C75.009 77.9794 75.3596 78.4439 75.791 78.8259C76.2225 79.208 76.726 79.4999 77.272 79.6844C77.818 79.8689 78.3952 79.9422 78.97 79.9002C81.48 79.9802 83.81 79.0402 86.24 78.6802C89.1687 78.2833 92.1492 78.5482 94.9621 79.4552C97.7749 80.3622 100.349 81.8883 102.494 83.9213C104.639 85.9542 106.301 88.4423 107.358 91.2024C108.415 93.9625 108.839 96.9244 108.6 99.8702C107.18 117.44 90.38 124.87 75.69 119.87C71.5669 118.546 67.8295 116.235 64.8024 113.138C61.7753 110.041 59.5501 106.252 58.32 102.1C52.95 85.3502 54.49 69.2302 64.72 54.5802C71.53 44.8102 81.29 38.9102 92.72 36.2002C119.17 29.9202 143.34 35.3402 165.25 51.2602C167.66 53.0202 169.96 54.9202 172.34 56.7002C172.98 57.1802 173.1 57.5002 172.61 58.1902C167.363 65.6369 162.137 73.1002 156.93 80.5802C156.44 81.2802 156.09 81.4302 155.31 80.9102C151.8 78.5302 148.31 76.2002 144.69 73.9102C143.76 73.3102 144.01 72.9102 144.5 72.1802C146.99 68.6702 149.38 65.1002 151.92 61.6302C152.71 60.5402 152.49 60.1302 151.43 59.4602C140.385 52.4769 127.626 48.6775 114.56 48.4802V48.4802Z" fill="#01858E"/>
</svg>
