<svg width="226" height="229" viewBox="0 0 226 229" fill="none" xmlns="http://www.w3.org/2000/svg">
<path d="M184.42 3.98047H40.62C19.7381 3.98047 2.81 20.9086 2.81 41.7905V188.13C2.81 209.012 19.7381 225.94 40.62 225.94H184.42C205.302 225.94 222.23 209.012 222.23 188.13V41.7905C222.23 20.9086 205.302 3.98047 184.42 3.98047Z" fill="white"/>
<path d="M225.66 114.44C225.66 139.42 225.66 164.404 225.66 189.39C225.66 211.93 209.36 228.26 186.85 228.26H39.29C16.78 228.26 0.480011 211.93 0.480011 189.39C0.480011 139.337 0.480011 89.2836 0.480011 39.2303C0.480011 16.8803 16.83 0.490234 39.15 0.490234C88.43 0.490234 137.707 0.490234 186.98 0.490234C209.31 0.490234 225.65 16.8703 225.66 39.2303C225.673 64.3036 225.673 89.3736 225.66 114.44ZM5.66001 114.15V189.36C5.66001 209.05 19.66 223.03 39.35 223.04H186.65C206.37 223.04 220.39 209.04 220.39 189.42C220.39 139.374 220.39 89.3203 220.39 39.2603C220.39 19.7403 206.39 5.72024 186.84 5.71024H39.32C19.66 5.71024 5.71 19.7102 5.7 39.4602L5.66001 114.15Z" fill="#3D3D3D"/>
<path d="M60.19 185.89C57.4 179.42 56.19 172.73 54.98 166.09C52.2348 151.987 50.9646 137.636 51.19 123.27C51.63 103.95 56.25 85.8903 68.19 70.2703C80.79 53.8003 97.51 45.0903 118.45 46.0003C146.45 47.2103 168.17 65.2203 174.12 88.0003C179.53 108.67 173.61 126.62 159.55 142.16C150.65 152 139.07 157.5 126.84 161.86C117.253 165.231 107.43 167.885 97.45 169.8C84 172.46 71.39 177.26 60.19 185.89ZM56.51 134.75C56.85 145.96 58.91 160.66 62.22 175.2C62.6 176.87 63 177.52 64.85 176.4C73.4292 171.224 82.8266 167.545 92.64 165.52C103.87 163.14 115.03 160.58 125.85 156.66C138.63 152.04 150.49 145.98 158.92 134.86C170.92 119.09 174.71 101.79 166.81 83.1403C156.4 58.5903 126.2 45.3603 100.14 53.5403C83.38 58.7903 72.33 70.4103 64.8 85.8403C57.83 100.13 56.07 115.39 56.51 134.75Z" fill="#3D3D3D"/>
<path d="M56.51 134.751C56.07 115.391 57.83 100.131 64.8 85.8406C72.33 70.4106 83.38 58.8406 100.14 53.5406C126.2 45.3606 156.4 58.5406 166.81 83.1406C174.71 101.791 170.88 119.091 158.92 134.861C150.49 145.981 138.63 152.041 125.85 156.661C115.03 160.581 103.85 163.141 92.64 165.521C82.8266 167.545 73.4292 171.224 64.85 176.401C63 177.521 62.6 176.871 62.22 175.201C58.91 160.661 56.85 146.001 56.51 134.751Z" fill="#FD5B28"/>
</svg>
